<mxfile modified="2023-09-18T09:16:27.713Z" host="app.diagrams.net" agent="Mozilla/5.0 (Macintosh; Intel Mac OS X 10_15_7) AppleWebKit/537.36 (KHTML, like Gecko) Chrome/116.0.0.0 Safari/537.36" etag="0lnVdocBnar6RZ52G9ag" version="21.7.5" type="device">
  <diagram id="Ht1M8jgEwFfnCIfOTk4-" name="Page-1">
    <mxGraphModel dx="2603" dy="1529" grid="1" gridSize="10" guides="1" tooltips="1" connect="1" arrows="1" fold="1" page="1" pageScale="1" pageWidth="1169" pageHeight="827" math="0" shadow="0">
      <root>
        <mxCell id="0" />
        <mxCell id="1" parent="0" />
        <mxCell id="UEzPUAAOIrF-is8g5C7q-175" value="" style="points=[[0,0],[0.25,0],[0.5,0],[0.75,0],[1,0],[1,0.25],[1,0.5],[1,0.75],[1,1],[0.75,1],[0.5,1],[0.25,1],[0,1],[0,0.75],[0,0.5],[0,0.25]];outlineConnect=0;gradientColor=none;html=1;whiteSpace=wrap;fontSize=12;fontStyle=0;shape=mxgraph.aws4.group;grIcon=mxgraph.aws4.group_aws_cloud_alt;strokeColor=#232F3E;fillColor=none;verticalAlign=top;align=left;spacingLeft=30;fontColor=#232F3E;dashed=0;labelBackgroundColor=#ffffff;container=1;pointerEvents=0;collapsible=0;recursiveResize=0;" parent="1" vertex="1">
          <mxGeometry x="-160" y="-720" width="240" height="260" as="geometry" />
        </mxCell>
        <mxCell id="UEzPUAAOIrF-is8g5C7q-177" value="Amazon S3&lt;br&gt;Bucket&lt;br&gt;" style="outlineConnect=0;fontColor=#232F3E;gradientColor=none;fillColor=#277116;strokeColor=none;dashed=0;verticalLabelPosition=bottom;verticalAlign=top;align=center;html=1;fontSize=12;fontStyle=0;aspect=fixed;pointerEvents=1;shape=mxgraph.aws4.bucket;labelBackgroundColor=#ffffff;" parent="UEzPUAAOIrF-is8g5C7q-175" vertex="1">
          <mxGeometry x="82.5" y="130" width="75" height="78" as="geometry" />
        </mxCell>
        <mxCell id="LbOVbiTw0jkolral4dzG-18" value="Udagram-frontend" style="text;strokeColor=none;fillColor=none;html=1;fontSize=24;fontStyle=1;verticalAlign=middle;align=center;" parent="UEzPUAAOIrF-is8g5C7q-175" vertex="1">
          <mxGeometry x="30" y="30" width="180" height="40" as="geometry" />
        </mxCell>
        <mxCell id="LbOVbiTw0jkolral4dzG-1" value="" style="points=[[0,0],[0.25,0],[0.5,0],[0.75,0],[1,0],[1,0.25],[1,0.5],[1,0.75],[1,1],[0.75,1],[0.5,1],[0.25,1],[0,1],[0,0.75],[0,0.5],[0,0.25]];outlineConnect=0;gradientColor=none;html=1;whiteSpace=wrap;fontSize=12;fontStyle=0;shape=mxgraph.aws4.group;grIcon=mxgraph.aws4.group_aws_cloud_alt;strokeColor=#232F3E;fillColor=none;verticalAlign=top;align=left;spacingLeft=30;fontColor=#232F3E;dashed=0;labelBackgroundColor=#ffffff;container=1;pointerEvents=0;collapsible=0;recursiveResize=0;" parent="1" vertex="1">
          <mxGeometry x="214" y="-720" width="386" height="260" as="geometry" />
        </mxCell>
        <mxCell id="LbOVbiTw0jkolral4dzG-2" value="" style="sketch=0;outlineConnect=0;fontColor=#232F3E;gradientColor=none;fillColor=#ED7100;strokeColor=none;dashed=0;verticalLabelPosition=bottom;verticalAlign=top;align=center;html=1;fontSize=12;fontStyle=0;aspect=fixed;pointerEvents=1;shape=mxgraph.aws4.auto_scaling2;" parent="LbOVbiTw0jkolral4dzG-1" vertex="1">
          <mxGeometry x="30" y="165" width="75" height="75" as="geometry" />
        </mxCell>
        <mxCell id="LbOVbiTw0jkolral4dzG-4" value="" style="sketch=0;points=[[0,0,0],[0.25,0,0],[0.5,0,0],[0.75,0,0],[1,0,0],[0,1,0],[0.25,1,0],[0.5,1,0],[0.75,1,0],[1,1,0],[0,0.25,0],[0,0.5,0],[0,0.75,0],[1,0.25,0],[1,0.5,0],[1,0.75,0]];outlineConnect=0;fontColor=#232F3E;fillColor=#ED7100;strokeColor=#ffffff;dashed=0;verticalLabelPosition=bottom;verticalAlign=top;align=center;html=1;fontSize=12;fontStyle=0;aspect=fixed;shape=mxgraph.aws4.resourceIcon;resIcon=mxgraph.aws4.ec2;" parent="LbOVbiTw0jkolral4dzG-1" vertex="1">
          <mxGeometry x="150" y="169" width="74" height="74" as="geometry" />
        </mxCell>
        <mxCell id="LbOVbiTw0jkolral4dzG-5" value="" style="sketch=0;points=[[0,0,0],[0.25,0,0],[0.5,0,0],[0.75,0,0],[1,0,0],[0,1,0],[0.25,1,0],[0.5,1,0],[0.75,1,0],[1,1,0],[0,0.25,0],[0,0.5,0],[0,0.75,0],[1,0.25,0],[1,0.5,0],[1,0.75,0]];outlineConnect=0;fontColor=#232F3E;fillColor=#ED7100;strokeColor=#ffffff;dashed=0;verticalLabelPosition=bottom;verticalAlign=top;align=center;html=1;fontSize=12;fontStyle=0;aspect=fixed;shape=mxgraph.aws4.resourceIcon;resIcon=mxgraph.aws4.elastic_beanstalk;" parent="LbOVbiTw0jkolral4dzG-1" vertex="1">
          <mxGeometry x="148" y="50" width="78" height="78" as="geometry" />
        </mxCell>
        <mxCell id="LbOVbiTw0jkolral4dzG-6" value="" style="sketch=0;points=[[0,0,0],[0.25,0,0],[0.5,0,0],[0.75,0,0],[1,0,0],[0,1,0],[0.25,1,0],[0.5,1,0],[0.75,1,0],[1,1,0],[0,0.25,0],[0,0.5,0],[0,0.75,0],[1,0.25,0],[1,0.5,0],[1,0.75,0]];outlineConnect=0;fontColor=#232F3E;fillColor=#ED7100;strokeColor=#ffffff;dashed=0;verticalLabelPosition=bottom;verticalAlign=top;align=center;html=1;fontSize=12;fontStyle=0;aspect=fixed;shape=mxgraph.aws4.resourceIcon;resIcon=mxgraph.aws4.elastic_load_balancing;" parent="LbOVbiTw0jkolral4dzG-1" vertex="1">
          <mxGeometry x="256" y="165" width="78" height="78" as="geometry" />
        </mxCell>
        <mxCell id="LbOVbiTw0jkolral4dzG-12" value="" style="rounded=0;whiteSpace=wrap;html=1;fillColor=none;" parent="LbOVbiTw0jkolral4dzG-1" vertex="1">
          <mxGeometry x="20" y="150" width="340" height="100" as="geometry" />
        </mxCell>
        <mxCell id="LbOVbiTw0jkolral4dzG-14" value="" style="endArrow=classic;html=1;rounded=0;" parent="LbOVbiTw0jkolral4dzG-1" edge="1">
          <mxGeometry width="50" height="50" relative="1" as="geometry">
            <mxPoint x="187" y="130" as="sourcePoint" />
            <mxPoint x="187" y="150" as="targetPoint" />
          </mxGeometry>
        </mxCell>
        <mxCell id="LbOVbiTw0jkolral4dzG-17" value="Udagram API" style="text;strokeColor=none;fillColor=none;html=1;fontSize=24;fontStyle=1;verticalAlign=middle;align=center;" parent="LbOVbiTw0jkolral4dzG-1" vertex="1">
          <mxGeometry x="77" y="10" width="220" height="40" as="geometry" />
        </mxCell>
        <mxCell id="LbOVbiTw0jkolral4dzG-23" value="" style="points=[[0,0],[0.25,0],[0.5,0],[0.75,0],[1,0],[1,0.25],[1,0.5],[1,0.75],[1,1],[0.75,1],[0.5,1],[0.25,1],[0,1],[0,0.75],[0,0.5],[0,0.25]];outlineConnect=0;gradientColor=none;html=1;whiteSpace=wrap;fontSize=12;fontStyle=0;shape=mxgraph.aws4.group;grIcon=mxgraph.aws4.group_aws_cloud_alt;strokeColor=#232F3E;fillColor=none;verticalAlign=top;align=left;spacingLeft=30;fontColor=#232F3E;dashed=0;labelBackgroundColor=#ffffff;container=1;pointerEvents=0;collapsible=0;recursiveResize=0;" parent="1" vertex="1">
          <mxGeometry x="-160" y="-720" width="240" height="260" as="geometry" />
        </mxCell>
        <mxCell id="LbOVbiTw0jkolral4dzG-24" value="Amazon S3&lt;br&gt;Bucket&lt;br&gt;" style="outlineConnect=0;fontColor=#232F3E;gradientColor=none;fillColor=#277116;strokeColor=none;dashed=0;verticalLabelPosition=bottom;verticalAlign=top;align=center;html=1;fontSize=12;fontStyle=0;aspect=fixed;pointerEvents=1;shape=mxgraph.aws4.bucket;labelBackgroundColor=#ffffff;" parent="LbOVbiTw0jkolral4dzG-23" vertex="1">
          <mxGeometry x="82.5" y="130" width="75" height="78" as="geometry" />
        </mxCell>
        <mxCell id="LbOVbiTw0jkolral4dzG-25" value="Udagram-frontend" style="text;strokeColor=none;fillColor=none;html=1;fontSize=24;fontStyle=1;verticalAlign=middle;align=center;" parent="LbOVbiTw0jkolral4dzG-23" vertex="1">
          <mxGeometry x="30" y="30" width="180" height="40" as="geometry" />
        </mxCell>
        <mxCell id="LbOVbiTw0jkolral4dzG-26" value="" style="points=[[0,0],[0.25,0],[0.5,0],[0.75,0],[1,0],[1,0.25],[1,0.5],[1,0.75],[1,1],[0.75,1],[0.5,1],[0.25,1],[0,1],[0,0.75],[0,0.5],[0,0.25]];outlineConnect=0;gradientColor=none;html=1;whiteSpace=wrap;fontSize=12;fontStyle=0;shape=mxgraph.aws4.group;grIcon=mxgraph.aws4.group_aws_cloud_alt;strokeColor=#232F3E;fillColor=none;verticalAlign=top;align=left;spacingLeft=30;fontColor=#232F3E;dashed=0;labelBackgroundColor=#ffffff;container=1;pointerEvents=0;collapsible=0;recursiveResize=0;" parent="1" vertex="1">
          <mxGeometry x="690" y="-720" width="240" height="260" as="geometry" />
        </mxCell>
        <mxCell id="LbOVbiTw0jkolral4dzG-28" value="Udagram database" style="text;strokeColor=none;fillColor=none;html=1;fontSize=24;fontStyle=1;verticalAlign=middle;align=center;" parent="LbOVbiTw0jkolral4dzG-26" vertex="1">
          <mxGeometry x="30" y="30" width="180" height="40" as="geometry" />
        </mxCell>
        <mxCell id="LbOVbiTw0jkolral4dzG-30" value="" style="sketch=0;points=[[0,0,0],[0.25,0,0],[0.5,0,0],[0.75,0,0],[1,0,0],[0,1,0],[0.25,1,0],[0.5,1,0],[0.75,1,0],[1,1,0],[0,0.25,0],[0,0.5,0],[0,0.75,0],[1,0.25,0],[1,0.5,0],[1,0.75,0]];outlineConnect=0;fontColor=#232F3E;fillColor=#C925D1;strokeColor=#ffffff;dashed=0;verticalLabelPosition=bottom;verticalAlign=top;align=center;html=1;fontSize=12;fontStyle=0;aspect=fixed;shape=mxgraph.aws4.resourceIcon;resIcon=mxgraph.aws4.rds;" parent="LbOVbiTw0jkolral4dzG-26" vertex="1">
          <mxGeometry x="81" y="91" width="78" height="78" as="geometry" />
        </mxCell>
        <mxCell id="LbOVbiTw0jkolral4dzG-31" value="" style="endArrow=classic;html=1;rounded=0;exitX=1;exitY=0.5;exitDx=0;exitDy=0;" parent="1" source="LbOVbiTw0jkolral4dzG-23" target="LbOVbiTw0jkolral4dzG-1" edge="1">
          <mxGeometry width="50" height="50" relative="1" as="geometry">
            <mxPoint x="130" y="-600" as="sourcePoint" />
            <mxPoint x="210" y="-600" as="targetPoint" />
          </mxGeometry>
        </mxCell>
        <mxCell id="LbOVbiTw0jkolral4dzG-32" value="Request" style="text;html=1;strokeColor=none;fillColor=none;align=center;verticalAlign=middle;whiteSpace=wrap;rounded=0;" parent="1" vertex="1">
          <mxGeometry x="120" y="-620" width="60" height="30" as="geometry" />
        </mxCell>
        <mxCell id="LbOVbiTw0jkolral4dzG-33" value="" style="endArrow=classic;html=1;rounded=0;exitX=0;exitY=0.75;exitDx=0;exitDy=0;entryX=1;entryY=0.75;entryDx=0;entryDy=0;" parent="1" source="LbOVbiTw0jkolral4dzG-1" edge="1" target="LbOVbiTw0jkolral4dzG-23">
          <mxGeometry width="50" height="50" relative="1" as="geometry">
            <mxPoint x="210" y="-550" as="sourcePoint" />
            <mxPoint x="130" y="-550" as="targetPoint" />
          </mxGeometry>
        </mxCell>
        <mxCell id="LbOVbiTw0jkolral4dzG-34" value="Response" style="text;html=1;strokeColor=none;fillColor=none;align=center;verticalAlign=middle;whiteSpace=wrap;rounded=0;" parent="1" vertex="1">
          <mxGeometry x="120" y="-560" width="60" height="30" as="geometry" />
        </mxCell>
        <mxCell id="LbOVbiTw0jkolral4dzG-35" value="" style="endArrow=classic;startArrow=classic;html=1;rounded=0;" parent="1" source="LbOVbiTw0jkolral4dzG-1" target="LbOVbiTw0jkolral4dzG-26" edge="1">
          <mxGeometry width="50" height="50" relative="1" as="geometry">
            <mxPoint x="560" y="-390" as="sourcePoint" />
            <mxPoint x="610" y="-440" as="targetPoint" />
          </mxGeometry>
        </mxCell>
      </root>
    </mxGraphModel>
  </diagram>
</mxfile>
